<?xml version="1.0" encoding="UTF-8"?>
<svg id="Layer_2" data-name="Layer 2" xmlns="http://www.w3.org/2000/svg" viewBox="0 0 524.586 88.572">
  <defs>
    <style>
      .cls-1 {
        fill: #fff;
      }
    </style>
  </defs>
  <g id="Layer_1-2" data-name="Layer 1">
    <g>
      <path class="cls-1" d="m36.215,28.682c2.537,1.083,4.623,2.736,6.253,4.963,1.384,1.887,2.23,3.828,2.538,5.823.308,1.995.462,5.249.462,9.765v29.689h-13.487v-30.764c0-2.722-.461-4.919-1.38-6.589-1.197-2.351-3.466-3.526-6.809-3.526-3.466,0-6.097,1.168-7.891,3.504s-2.691,5.668-2.691,9.998v27.377H0V10.836h13.209v24.101c1.908-2.935,4.115-4.982,6.622-6.142,2.507-1.157,5.146-1.737,7.914-1.737,3.107,0,5.931.541,8.469,1.624Z"/>
      <path class="cls-1" d="m82.362,29.426c3.524,1.58,6.434,4.069,8.73,7.473,2.069,3.002,3.411,6.483,4.025,10.445.356,2.321.501,5.662.436,10.026h-36.795c.205,5.069,1.966,8.621,5.283,10.66,2.018,1.268,4.446,1.9,7.283,1.9,3.009,0,5.454-.771,7.335-2.317,1.025-.834,1.932-1.993,2.719-3.476h13.486c-.356,2.998-1.988,6.042-4.897,9.131-4.525,4.913-10.86,7.369-19.007,7.369-6.723,0-12.655-2.073-17.795-6.216-5.139-4.144-7.709-10.886-7.709-20.227,0-8.751,2.319-15.462,6.96-20.13,4.639-4.67,10.661-7.006,18.066-7.006,4.397,0,8.357.79,11.881,2.367Zm-19.761,11.411c-1.867,1.924-3.04,4.531-3.519,7.82h22.757c-.24-3.506-1.413-6.168-3.519-7.983-2.106-1.815-4.717-2.723-7.835-2.723-3.39,0-6.019.962-7.885,2.887Z"/>
      <path class="cls-1" d="m116.547,48.193c2.458-.308,4.217-.695,5.275-1.159,1.899-.803,2.849-2.054,2.849-3.754,0-2.069-.729-3.498-2.185-4.288-1.456-.786-3.594-1.181-6.413-1.181-3.164,0-5.403.773-6.719,2.317-.94,1.144-1.566,2.688-1.879,4.635h-12.746c.279-4.418,1.52-8.048,3.724-10.892,3.507-4.449,9.527-6.674,18.062-6.674,5.554,0,10.488,1.098,14.802,3.291,4.313,2.195,6.47,6.335,6.47,12.421v23.174c0,1.607.031,3.554.093,5.84.093,1.732.355,2.905.788,3.522.432.619,1.081,1.129,1.947,1.53v1.947h-14.368c-.402-1.02-.68-1.976-.834-2.874-.155-.895-.278-1.915-.371-3.059-1.834,1.978-3.948,3.662-6.34,5.052-2.859,1.637-6.092,2.456-9.697,2.456-4.6,0-8.399-1.305-11.398-3.916-3-2.612-4.499-6.311-4.499-11.101,0-6.211,2.412-10.707,7.237-13.487,2.647-1.513,6.537-2.596,11.673-3.244l4.529-.556Zm8.077,6.164c-.845.527-1.699.949-2.56,1.276-.862.323-2.044.625-3.548.903l-3.007.556c-2.818.495-4.843,1.098-6.072,1.808-2.08,1.205-3.12,3.076-3.12,5.608,0,2.256.635,3.886,1.906,4.889,1.271,1.005,2.816,1.507,4.636,1.507,2.887,0,5.545-.834,7.977-2.503,2.432-1.669,3.695-4.711,3.789-9.131v-4.913Z"/>
      <path class="cls-1" d="m153.703,78.923h-13.209V10.605h13.209v68.318Z"/>
      <path class="cls-1" d="m155.001,35.837v-9.974h7.468v-14.935h13.855v14.935h8.696v9.974h-8.696v28.299c0,2.193.278,3.561.835,4.101.556.541,2.26.812,5.109.812.425,0,.876-.009,1.352-.026.474-.015.941-.041,1.4-.074v10.466l-6.632.247c-6.617.228-11.137-.918-13.56-3.441-1.572-1.604-2.358-4.077-2.358-7.418v-32.965h-7.468Z"/>
      <path class="cls-1" d="m222.401,28.682c2.537,1.083,4.623,2.736,6.253,4.963,1.384,1.887,2.23,3.828,2.538,5.823.308,1.995.462,5.249.462,9.765v29.689h-13.487v-30.764c0-2.722-.461-4.919-1.38-6.589-1.197-2.351-3.466-3.526-6.809-3.526-3.466,0-6.097,1.168-7.891,3.504-1.795,2.336-2.691,5.668-2.691,9.998v27.377h-13.209V10.836h13.209v24.101c1.908-2.935,4.115-4.982,6.622-6.142,2.507-1.157,5.146-1.737,7.914-1.737,3.107,0,5.931.541,8.469,1.624Z"/>
      <path class="cls-1" d="m248.5,59.002c0-3.893-1.175-6.874-3.522-8.945-1.421-1.266-3.46-2.271-6.117-3.013v-5.608c2.997-1.02,5.113-2.147,6.351-3.383,2.191-2.132,3.289-5.391,3.289-9.78v-12.421c0-1.576.263-3.228.786-4.959.927-2.996,2.499-5.376,4.716-7.138,2.036-1.606,4.424-2.672,7.167-3.198,1.665-.339,4.053-.525,7.167-.556v7.416c-2.547.556-4.283,1.296-5.202,2.221-1.413,1.42-2.121,3.904-2.121,7.453v10.74c0,3.458-.463,6.203-1.39,8.239-1.576,3.428-4.665,6.205-9.27,8.333,4.171,1.698,6.975,3.673,8.413,5.925,1.435,2.253,2.184,5.371,2.247,9.349v11.713c0,3.424.831,5.894,2.488,7.407.92.894,2.532,1.682,4.835,2.36v7.416l-3.281-.093c-4.409-.124-8.269-1.444-11.583-3.962-3.315-2.52-4.972-6.188-4.972-11.009v-14.507Z"/>
      <path class="cls-1" d="m308.116,28.682c2.538,1.083,4.622,2.736,6.253,4.963,1.385,1.887,2.23,3.828,2.538,5.823.308,1.995.462,5.249.462,9.765v29.689h-13.487v-30.764c0-2.722-.46-4.919-1.381-6.589-1.196-2.351-3.465-3.526-6.808-3.526-3.467,0-6.096,1.168-7.89,3.504-1.795,2.336-2.692,5.668-2.692,9.998v27.377h-13.209V10.836h13.209v24.101c1.908-2.935,4.116-4.982,6.622-6.142,2.507-1.157,5.145-1.737,7.914-1.737,3.107,0,5.931.541,8.469,1.624Z"/>
      <path class="cls-1" d="m340.877,48.193c2.458-.308,4.218-.695,5.276-1.159,1.898-.803,2.848-2.054,2.848-3.754,0-2.069-.729-3.498-2.186-4.288-1.455-.786-3.593-1.181-6.413-1.181-3.163,0-5.402.773-6.717,2.317-.94,1.144-1.567,2.688-1.88,4.635h-12.746c.278-4.418,1.52-8.048,3.725-10.892,3.506-4.449,9.526-6.674,18.061-6.674,5.554,0,10.488,1.098,14.802,3.291,4.314,2.195,6.47,6.335,6.47,12.421v23.174c0,1.607.03,3.554.093,5.84.093,1.732.354,2.905.788,3.522.432.619,1.081,1.129,1.947,1.53v1.947h-14.368c-.402-1.02-.68-1.976-.834-2.874-.156-.895-.278-1.915-.371-3.059-1.834,1.978-3.947,3.662-6.34,5.052-2.859,1.637-6.092,2.456-9.696,2.456-4.601,0-8.4-1.305-11.398-3.916-3-2.612-4.5-6.311-4.5-11.101,0-6.211,2.412-10.707,7.238-13.487,2.646-1.513,6.537-2.596,11.672-3.244l4.529-.556Zm8.078,6.164c-.847.527-1.7.949-2.562,1.276-.86.323-2.043.625-3.547.903l-3.007.556c-2.818.495-4.843,1.098-6.072,1.808-2.08,1.205-3.12,3.076-3.12,5.608,0,2.256.636,3.886,1.906,4.889,1.27,1.005,2.816,1.507,4.637,1.507,2.887,0,5.545-.834,7.976-2.503,2.432-1.669,3.695-4.711,3.789-9.131v-4.913Z"/>
      <path class="cls-1" d="m394.957,46.525c-.248-1.884-.882-3.584-1.904-5.098-1.489-2.039-3.795-3.059-6.923-3.059-4.462,0-7.512,2.21-9.153,6.628-.868,2.343-1.301,5.456-1.301,9.338,0,3.699.434,6.674,1.301,8.923,1.58,4.203,4.551,6.303,8.919,6.303,3.098,0,5.297-.834,6.598-2.503,1.3-1.669,2.091-3.83,2.369-6.489h13.487c-.31,4.018-1.763,7.818-4.36,11.402-4.145,5.779-10.286,8.667-18.419,8.667s-14.12-2.41-17.955-7.23c-3.836-4.82-5.753-11.07-5.753-18.749,0-8.665,2.119-15.41,6.355-20.23,4.238-4.82,10.084-7.23,17.538-7.23,6.34,0,11.528,1.422,15.566,4.264,4.036,2.844,6.424,7.864,7.167,15.063h-13.534Z"/>
      <path class="cls-1" d="m408.466,10.836h12.978v36.855l16.661-19.057h16.426l-18.108,18.821,18.808,31.467h-16.076l-12.242-21.586-5.471,5.688v15.898h-12.978V10.836Z"/>
      <path class="cls-1" d="m461.293,62.793c.28,2.349.884,4.018,1.817,5.006,1.644,1.761,4.687,2.642,9.127,2.642,2.609,0,4.681-.386,6.218-1.159,1.537-.771,2.304-1.93,2.304-3.476,0-1.483-.619-2.61-1.858-3.383-1.238-.771-5.844-2.101-13.817-3.986-5.742-1.42-9.787-3.198-12.134-5.33-2.349-2.101-3.522-5.128-3.522-9.084,0-4.665,1.834-8.675,5.504-12.027,3.669-3.354,8.832-5.03,15.49-5.03,6.316,0,11.465,1.259,15.443,3.776,3.979,2.52,6.263,6.869,6.852,13.048h-13.209c-.185-1.698-.666-3.042-1.441-4.032-1.457-1.791-3.936-2.688-7.436-2.688-2.883,0-4.935.449-6.159,1.344-1.224.897-1.835,1.947-1.835,3.152,0,1.515.651,2.612,1.952,3.291,1.301.712,5.897,1.932,13.792,3.662,5.262,1.237,9.207,3.105,11.834,5.608,2.596,2.534,3.893,5.701,3.893,9.501,0,5.006-1.865,9.092-5.597,12.258-3.73,3.168-9.496,4.752-17.299,4.752-7.957,0-13.832-1.676-17.624-5.03-3.793-3.352-5.69-7.623-5.69-12.814h13.395Z"/>
      <path class="cls-1" d="m495.016,88.572v-7.416c2.317-.679,3.94-1.481,4.867-2.406,1.576-1.544,2.393-3.997,2.456-7.36v-11.713c0-4.381.853-7.629,2.558-9.742,1.706-2.113,4.42-3.958,8.141-5.532-4.062-1.974-6.861-4.22-8.397-6.735-1.535-2.514-2.303-5.794-2.303-9.837v-10.74c0-3.424-.549-5.755-1.644-6.989-1.098-1.233-2.99-2.128-5.679-2.685V0c3.096.032,5.482.217,7.154.556,2.757.527,5.171,1.593,7.247,3.198,2.075,1.607,3.515,3.586,4.32,5.933.806,2.349,1.209,4.403,1.209,6.164v12.421c0,4.42,1.003,7.664,3.013,9.733,1.235,1.237,3.445,2.38,6.628,3.43v5.608c-2.627.742-4.62,1.7-5.979,2.874-2.442,2.102-3.662,5.13-3.662,9.084v14.507c0,4.696-1.626,8.335-4.878,10.916-3.252,2.579-7.169,3.93-11.754,4.055l-3.298.093Z"/>
    </g>
  </g>
</svg>