<svg width="200" height="32" viewBox="0 0 200 32" fill="none" xmlns="http://www.w3.org/2000/svg">
<g clip-path="url(#clip0_1_92)">
<path fill-rule="evenodd" clip-rule="evenodd" d="M12.1247 20.043H18.9803C22.8043 20.043 25.8358 16.853 25.8358 13.0011C25.8358 9.14923 22.8043 5.95921 18.9803 5.95921C15.1562 5.95921 12.1247 9.14923 12.1247 13.0011V20.043ZM18.9803 0.0909424C11.9017 0.0909424 6.16333 5.87103 6.16333 13.0011V25.9113H18.9803C26.0589 25.9113 31.7971 20.1312 31.7971 13.0011C31.7971 5.87103 26.0589 0.0909424 18.9803 0.0909424Z" fill="white"/>
<path d="M6.16333 20.0431H12.1247V25.9114H6.16333V20.0431Z" fill="white"/>
<path d="M18.0871 25.9113H12.1257V20.0431H18.0871V25.9113Z" fill="white"/>
<path d="M6.16333 25.9113H12.1247V31.7795H6.16333V25.9113Z" fill="white"/>
<path d="M12.1274 20.0431H6.16602V14.1748H12.1274V20.0431Z" fill="white"/>
<path d="M0.202881 20.043H6.16423V25.9113H0.202881V20.043Z" fill="white"/>
<path d="M52.9318 6.2324C54.8226 6.2324 56.4138 6.85882 57.7055 8.11168C58.9972 9.36453 59.6431 10.903 59.6431 12.727C59.6431 14.551 58.9972 16.0894 57.7055 17.3422C56.4138 18.5951 54.8226 19.2215 52.9318 19.2215H49.4779V25.7867H45.6028V6.2324H52.9318ZM52.9318 15.6564C53.7555 15.6564 54.4388 15.3801 54.9817 14.8273C55.5246 14.2562 55.796 13.5561 55.796 12.727C55.796 11.8794 55.5246 11.1793 54.9817 10.6266C54.4388 10.0739 53.7555 9.7975 52.9318 9.7975H49.4779V15.6564H52.9318Z" fill="white"/>
<path d="M63.233 10.1986C62.6339 10.1986 62.1098 9.98674 61.6604 9.56298C61.2299 9.1208 61.0146 8.60492 61.0146 8.01534C61.0146 7.42576 61.2299 6.90988 61.6604 6.4677C62.1098 6.02552 62.6339 5.80443 63.233 5.80443C63.8508 5.80443 64.375 6.02552 64.8055 6.4677C65.2548 6.90988 65.4794 7.42576 65.4794 8.01534C65.4794 8.60492 65.2548 9.1208 64.8055 9.56298C64.375 9.98674 63.8508 10.1986 63.233 10.1986ZM61.4359 25.675V11.8568H65.0582V25.675H61.4359Z" fill="white"/>
<path d="M74.4953 26.0619C72.3799 26.0619 70.6109 25.3618 69.1881 23.9616C67.7841 22.5613 67.082 20.8294 67.082 18.7659C67.082 16.7024 67.7841 14.9705 69.1881 13.5703C70.6109 12.17 72.3799 11.4699 74.4953 11.4699C75.8619 11.4699 77.1068 11.7923 78.2301 12.4372C79.3533 13.082 80.2051 13.948 80.7854 15.035L77.6684 16.8314C77.3876 16.2602 76.9571 15.8088 76.3768 15.4772C75.8151 15.1455 75.1786 14.9797 74.4672 14.9797C73.3814 14.9797 72.4828 15.339 71.7715 16.0575C71.0601 16.7577 70.7045 17.6605 70.7045 18.7659C70.7045 19.8529 71.0601 20.7557 71.7715 21.4743C72.4828 22.1744 73.3814 22.5245 74.4672 22.5245C75.1974 22.5245 75.8431 22.3679 76.4048 22.0546C76.9852 21.723 77.4157 21.2716 77.6965 20.7005L80.8415 22.4692C80.2238 23.5562 79.3533 24.4314 78.2301 25.0947C77.1068 25.7395 75.8619 26.0619 74.4953 26.0619Z" fill="white"/>
<path d="M90.1118 11.4699C91.6468 11.4699 92.9105 11.9766 93.9027 12.9899C94.9135 14.0032 95.419 15.4035 95.419 17.1906V25.675H91.7966V17.6328C91.7966 16.7116 91.5439 16.0115 91.0384 15.5325C90.533 15.035 89.859 14.7863 89.0167 14.7863C88.0806 14.7863 87.3318 15.0718 86.7702 15.643C86.2086 16.2142 85.9278 17.0709 85.9278 18.2132V25.675H82.3054V11.8568H85.9278V13.4044C86.8077 12.1147 88.2023 11.4699 90.1118 11.4699Z" fill="white"/>
<path d="M99.7474 10.1986C99.1484 10.1986 98.6243 9.98674 98.1749 9.56298C97.7444 9.1208 97.5291 8.60492 97.5291 8.01534C97.5291 7.42576 97.7444 6.90988 98.1749 6.4677C98.6243 6.02552 99.1484 5.80443 99.7474 5.80443C100.365 5.80443 100.889 6.02552 101.32 6.4677C101.769 6.90988 101.994 7.42576 101.994 8.01534C101.994 8.60492 101.769 9.1208 101.32 9.56298C100.889 9.98674 100.365 10.1986 99.7474 10.1986ZM97.9503 25.675V11.8568H101.573V25.675H97.9503Z" fill="white"/>
<path d="M111.01 26.0619C108.894 26.0619 107.125 25.3618 105.703 23.9616C104.298 22.5613 103.597 20.8294 103.597 18.7659C103.597 16.7024 104.298 14.9705 105.703 13.5703C107.125 12.17 108.894 11.4699 111.01 11.4699C112.377 11.4699 113.621 11.7923 114.744 12.4372C115.868 13.082 116.72 13.948 117.299 15.035L114.183 16.8314C113.903 16.2602 113.471 15.8088 112.891 15.4772C112.33 15.1455 111.693 14.9797 110.982 14.9797C109.896 14.9797 108.997 15.339 108.286 16.0575C107.575 16.7577 107.219 17.6605 107.219 18.7659C107.219 19.8529 107.575 20.7557 108.286 21.4743C108.997 22.1744 109.896 22.5245 110.982 22.5245C111.712 22.5245 112.357 22.3679 112.92 22.0546C113.499 21.723 113.93 21.2716 114.211 20.7005L117.356 22.4692C116.738 23.5562 115.868 24.4314 114.744 25.0947C113.621 25.7395 112.377 26.0619 111.01 26.0619Z" fill="white"/>
<path d="M130.164 6.2324H134.011V25.675H130.164V17.6605H122.864V25.7362H118.989V6.2324H122.864V14.0124H130.164V6.2324Z" fill="white"/>
<path d="M139.994 20.2306C140.48 21.9625 141.8 22.8285 143.953 22.8285C145.338 22.8285 146.387 22.3679 147.099 21.4466L150.018 23.1048C148.634 25.0762 146.593 26.0619 143.898 26.0619C141.576 26.0619 139.713 25.371 138.309 23.9892C136.905 22.6074 136.203 20.8663 136.203 18.7659C136.203 16.684 136.896 14.9521 138.281 13.5703C139.666 12.17 141.445 11.4699 143.616 11.4699C145.675 11.4699 147.37 12.17 148.699 13.5703C150.047 14.9705 150.721 16.7024 150.721 18.7659C150.721 19.2265 150.674 19.7148 150.58 20.2306H139.994ZM139.938 17.467H147.099C146.892 16.5274 146.462 15.8272 145.806 15.3666C145.17 14.906 144.44 14.6757 143.616 14.6757C142.643 14.6757 141.838 14.9245 141.201 15.4219C140.565 15.9009 140.143 16.5826 139.938 17.467Z" fill="white"/>
<path d="M163.249 11.8568H166.871V25.675H163.249V24.0445C162.162 25.3894 160.637 26.0619 158.671 26.0619C156.8 26.0619 155.19 25.3618 153.842 23.9616C152.513 22.5429 151.848 20.811 151.848 18.7659C151.848 16.7208 152.513 14.9981 153.842 13.5979C155.19 12.1792 156.8 11.4699 158.671 11.4699C160.637 11.4699 162.162 12.1424 163.249 13.4874V11.8568ZM156.565 21.5848C157.295 22.3034 158.222 22.6627 159.345 22.6627C160.469 22.6627 161.395 22.3034 162.126 21.5848C162.874 20.8479 163.249 19.9082 163.249 18.7659C163.249 17.6236 162.874 16.6932 162.126 15.9746C161.395 15.2377 160.469 14.8692 159.345 14.8692C158.222 14.8692 157.295 15.2377 156.565 15.9746C155.835 16.6932 155.47 17.6236 155.47 18.7659C155.47 19.9082 155.835 20.8479 156.565 21.5848Z" fill="white"/>
<path d="M169.594 25.675V5.93195H173.216V25.675H169.594Z" fill="white"/>
<path d="M184.001 15.2837H180.828V21.0321C180.828 21.5111 180.95 21.8612 181.194 22.0823C181.437 22.3034 181.793 22.4323 182.261 22.4692C182.729 22.4876 183.309 22.4784 184.001 22.4416V25.675C181.512 25.9514 179.752 25.7211 178.723 24.9841C177.712 24.2471 177.206 22.9298 177.206 21.0321V15.2837H174.763V11.8568H177.206V9.06553L180.828 7.9755V11.8568H184.001V15.2837Z" fill="white"/>
<path d="M193.8 11.4699C195.335 11.4699 196.599 11.9766 197.591 12.9899C198.602 14.0032 199.108 15.4035 199.108 17.1906V25.675H195.485V17.6328C195.485 16.7116 195.232 16.0115 194.727 15.5325C194.221 15.035 193.547 14.7863 192.706 14.7863C191.77 14.7863 191.02 15.0718 190.459 15.643C189.897 16.2142 189.616 17.0709 189.616 18.2132V25.675H185.994V6.42128L189.616 5.33105V13.4044C190.496 12.1147 191.89 11.4699 193.8 11.4699Z" fill="white"/>
</g>
<defs>
<clipPath id="clip0_1_92">
<rect width="200" height="32" fill="white"/>
</clipPath>
</defs>
</svg>
