<svg width="168" height="35" version="1.1" xmlns="http://www.w3.org/2000/svg"><g id="Akasa-Logo-/-FullColor" stroke="none" stroke-width="1" fill="none" fill-rule="evenodd"><g id="Akasa-Logo_FullColor"><circle id="Oval" fill="#1D334D" fill-rule="nonzero" cx="17.5" cy="17.5" r="17.5"/><circle id="Oval" fill="#FFF" fill-rule="nonzero" cx="11.5" cy="11.5" r="1.5"/><circle id="Oval" fill="#FFF" fill-rule="nonzero" cx="17.5" cy="11.5" r="1.5"/><circle id="Oval" fill="#FFF" fill-rule="nonzero" cx="23.5" cy="11.5" r="1.5"/><path d="M23.856 16.04a1.421 1.421 0 00-.954.145c-.276.148-.494.382-.77.53a3.483 3.483 0 01-1.654.358 3.093 3.093 0 01-1.597-.389 8.178 8.178 0 00-.827-.57 1.416 1.416 0 00-.933-.063c-.288.118-.553.29-.783.505a2.806 2.806 0 01-.904.42 3.985 3.985 0 01-1.448.074 3.245 3.245 0 01-.938-.251 4.676 4.676 0 01-.78-.528 1.407 1.407 0 00-1.551-.059c-.485.294-.762.85-.711 1.428.05.578.42 1.074.946 1.273.271.1.565.114.844.04a2.53 2.53 0 00.814-.494 2.9 2.9 0 011.682-.522c.48-.025.96.037 1.417.186.301.117.58.286.828.5.241.216.544.347.863.373.315.023.63-.063.894-.243a5.76 5.76 0 01.805-.547 3.494 3.494 0 011.517-.269 3.023 3.023 0 011.618.417c.247.195.506.372.775.53.285.124.6.149.9.072.51-.138.909-.55 1.043-1.078a1.548 1.548 0 00-.396-1.47 1.414 1.414 0 00-.7-.368z" id="Path" fill="#86D9E9" fill-rule="nonzero"/><path id="Rectangle" fill="#E7314E" fill-rule="nonzero" d="M10 22h15v2H10z"/><path id="Path" d="M52 20h6l-3-7zm99 0h6l-2.999-7zm-47 0h6l-3-7z"/><path d="M51.917 6l-5.872 13.132h-2.97L41 23.727h2.995L42.079 28h6.446l1.752-4.273h9.417L61.446 28H68L58.145 6.008 51.917 6zm.192 13.132l2.863-7.027 2.864 7.027h-5.727z" id="Shape" fill="#1D334D" fill-rule="nonzero"/><path id="Path" fill="#1D334D" fill-rule="nonzero" d="M92.53 6h-6.852l-8.516 9.147V6H71v22h6.162v-5.5l2.325-2.484L85.773 28H93l-9.46-12.256z"/><path d="M103.87 6L94 28h6.452l1.756-4.275h9.455L113.422 28H120l-9.892-22h-6.238zm.193 13.137l2.885-7.04 2.874 7.03-5.76.01z" id="Shape" fill="#1D334D" fill-rule="nonzero"/><path d="M136.923 16.254a30.322 30.322 0 00-4.16-1.152 17.899 17.899 0 01-3.242-.915c-.67-.294-1.005-.736-1.005-1.326a1.662 1.662 0 01.848-1.438c.566-.362 1.466-.543 2.702-.543 1.966 0 3.997.569 6.092 1.706l1.915-4.643a13.12 13.12 0 00-3.701-1.454c-1.4-.326-2.832-.49-4.268-.489-2.117 0-3.901.316-5.355.948a7.346 7.346 0 00-3.282 2.573 6.362 6.362 0 00-1.1 3.65c0 1.537.398 2.758 1.194 3.662a6.945 6.945 0 002.859 1.975 30.83 30.83 0 004.144 1.158c1.12.22 2.22.543 3.282.964.678.305 1.021.775 1.021 1.405 0 1.2-1.194 1.801-3.582 1.801-1.3-.007-2.59-.21-3.83-.6a13.14 13.14 0 01-3.423-1.579L122 26.568a12.764 12.764 0 004.085 1.769 20.31 20.31 0 005.181.663c2.095 0 3.874-.322 5.338-.965 1.465-.643 2.563-1.5 3.296-2.573a6.228 6.228 0 001.1-3.6c0-1.538-.403-2.754-1.208-3.649a7.203 7.203 0 00-2.869-1.959z" id="Path" fill="#1D334D" fill-rule="nonzero"/><path d="M168 23.725l-2.076-4.596h-2.983L157.046 6h-6.207L141 28h6.432l1.75-4.275h9.425l1.75 4.275h6.561l-1.917-4.275H168zm-16.983-4.596l2.868-7.03 2.865 7.03h-5.733z" id="Shape" fill="#1D334D" fill-rule="nonzero"/><path id="Path" fill="#1D334D" fill-rule="nonzero" d="M162.78 8.31H162V8h2v.31h-.776V10h-.438zm4.721 1.686V8.67l-.884 1.097h-.228l-.902-1.076V10H165V8h.419l1.091 1.327L167.581 8H168v2z"/></g></g></svg>