<svg width="197" height="32" viewBox="0 0 197 32" fill="none" xmlns="http://www.w3.org/2000/svg">
<path fill-rule="evenodd" clip-rule="evenodd" d="M11.9427 20.043H18.6955C22.4622 20.043 25.4482 16.853 25.4482 13.0011C25.4482 9.14923 22.4622 5.95921 18.6955 5.95921C14.9288 5.95921 11.9427 9.14923 11.9427 13.0011V20.043ZM18.6955 0.0909424C11.7231 0.0909424 6.0708 5.87103 6.0708 13.0011V25.9113H18.6955C25.6679 25.9113 31.3201 20.1312 31.3201 13.0011C31.3201 5.87103 25.6679 0.0909424 18.6955 0.0909424Z" fill="#7E57FF"/>
<path d="M6.0708 20.0431H11.9427V25.9114H6.0708V20.0431Z" fill="#7E57FF"/>
<path d="M17.8157 25.9113H11.9438V20.0431H17.8157V25.9113Z" fill="#FFDD2A"/>
<path d="M6.0708 25.9113H11.9427V31.7795H6.0708V25.9113Z" fill="#4BCEFA"/>
<path d="M11.9456 20.0431H6.07363V14.1748H11.9456V20.0431Z" fill="#45EC9C"/>
<path d="M0.199951 20.043H6.07188V25.9113H0.199951V20.043Z" fill="#FE5E7A"/>
<path d="M52.1378 6.2324C54.0002 6.2324 55.5676 6.85882 56.8399 8.11168C58.1122 9.36453 58.7484 10.903 58.7484 12.727C58.7484 14.551 58.1122 16.0894 56.8399 17.3422C55.5676 18.5951 54.0002 19.2215 52.1378 19.2215H48.7357V25.7867H44.9187V6.2324H52.1378ZM52.1378 15.6564C52.9491 15.6564 53.6222 15.3801 54.1569 14.8273C54.6917 14.2562 54.959 13.5561 54.959 12.727C54.959 11.8794 54.6917 11.1793 54.1569 10.6266C53.6222 10.0739 52.9491 9.7975 52.1378 9.7975H48.7357V15.6564H52.1378Z" fill="#7E57FF"/>
<path d="M62.2845 10.1986C61.6944 10.1986 61.1781 9.98674 60.7355 9.56298C60.3114 9.1208 60.0994 8.60492 60.0994 8.01534C60.0994 7.42576 60.3114 6.90988 60.7355 6.4677C61.1781 6.02552 61.6944 5.80443 62.2845 5.80443C62.893 5.80443 63.4093 6.02552 63.8334 6.4677C64.2759 6.90988 64.4972 7.42576 64.4972 8.01534C64.4972 8.60492 64.2759 9.1208 63.8334 9.56298C63.4093 9.98674 62.893 10.1986 62.2845 10.1986ZM60.5143 25.675V11.8568H64.0823V25.675H60.5143Z" fill="#7E57FF"/>
<path d="M73.3778 26.0619C71.2941 26.0619 69.5516 25.3618 68.1502 23.9616C66.7672 22.5613 66.0757 20.8294 66.0757 18.7659C66.0757 16.7024 66.7672 14.9705 68.1502 13.5703C69.5516 12.17 71.2941 11.4699 73.3778 11.4699C74.7239 11.4699 75.9501 11.7923 77.0565 12.4372C78.1629 13.082 79.0019 13.948 79.5735 15.035L76.5033 16.8314C76.2267 16.2602 75.8026 15.8088 75.231 15.4772C74.6778 15.1455 74.0508 14.9797 73.3501 14.9797C72.2806 14.9797 71.3955 15.339 70.6948 16.0575C69.9941 16.7577 69.6438 17.6605 69.6438 18.7659C69.6438 19.8529 69.9941 20.7557 70.6948 21.4743C71.3955 22.1744 72.2806 22.5245 73.3501 22.5245C74.0693 22.5245 74.7054 22.3679 75.2586 22.0546C75.8303 21.723 76.2544 21.2716 76.531 20.7005L79.6288 22.4692C79.0203 23.5562 78.1629 24.4314 77.0565 25.0947C75.9501 25.7395 74.7239 26.0619 73.3778 26.0619Z" fill="#7E57FF"/>
<path d="M88.7601 11.4699C90.2721 11.4699 91.5168 11.9766 92.4941 12.9899C93.4898 14.0032 93.9877 15.4035 93.9877 17.1906V25.675H90.4196V17.6328C90.4196 16.7116 90.1707 16.0115 89.6728 15.5325C89.175 15.035 88.5111 14.7863 87.6814 14.7863C86.7594 14.7863 86.0218 15.0718 85.4686 15.643C84.9154 16.2142 84.6388 17.0709 84.6388 18.2132V25.675H81.0708V11.8568H84.6388V13.4044C85.5055 12.1147 86.8792 11.4699 88.7601 11.4699Z" fill="#7E57FF"/>
<path d="M98.2513 10.1986C97.6613 10.1986 97.145 9.98674 96.7024 9.56298C96.2783 9.1208 96.0662 8.60492 96.0662 8.01534C96.0662 7.42576 96.2783 6.90988 96.7024 6.4677C97.145 6.02552 97.6613 5.80443 98.2513 5.80443C98.8598 5.80443 99.3761 6.02552 99.8003 6.4677C100.243 6.90988 100.464 7.42576 100.464 8.01534C100.464 8.60492 100.243 9.1208 99.8003 9.56298C99.3761 9.98674 98.8598 10.1986 98.2513 10.1986ZM96.4811 25.675V11.8568H100.049V25.675H96.4811Z" fill="#7E57FF"/>
<path d="M109.345 26.0619C107.261 26.0619 105.518 25.3618 104.117 23.9616C102.734 22.5613 102.043 20.8294 102.043 18.7659C102.043 16.7024 102.734 14.9705 104.117 13.5703C105.518 12.17 107.261 11.4699 109.345 11.4699C110.691 11.4699 111.917 11.7923 113.023 12.4372C114.13 13.082 114.969 13.948 115.54 15.035L112.47 16.8314C112.194 16.2602 111.769 15.8088 111.198 15.4772C110.645 15.1455 110.018 14.9797 109.317 14.9797C108.248 14.9797 107.362 15.339 106.662 16.0575C105.961 16.7577 105.611 17.6605 105.611 18.7659C105.611 19.8529 105.961 20.7557 106.662 21.4743C107.362 22.1744 108.248 22.5245 109.317 22.5245C110.036 22.5245 110.672 22.3679 111.226 22.0546C111.797 21.723 112.221 21.2716 112.498 20.7005L115.596 22.4692C114.987 23.5562 114.13 24.4314 113.023 25.0947C111.917 25.7395 110.691 26.0619 109.345 26.0619Z" fill="#7E57FF"/>
<path d="M128.212 6.2324H132.001V25.675H128.212V17.6605H121.021V25.7362H117.204L117.204 6.2324H121.021L121.021 14.0124H128.212V6.2324Z" fill="#7E57FF"/>
<path d="M137.894 20.2306C138.373 21.9625 139.673 22.8285 141.794 22.8285C143.158 22.8285 144.191 22.3679 144.892 21.4466L147.768 23.1048C146.404 25.0762 144.394 26.0619 141.739 26.0619C139.452 26.0619 137.617 25.371 136.234 23.9892C134.851 22.6074 134.16 20.8663 134.16 18.7659C134.16 16.684 134.842 14.9521 136.207 13.5703C137.571 12.17 139.323 11.4699 141.462 11.4699C143.49 11.4699 145.159 12.17 146.468 13.5703C147.796 14.9705 148.46 16.7024 148.46 18.7659C148.46 19.2265 148.414 19.7148 148.321 20.2306H137.894ZM137.839 17.467H144.892C144.689 16.5274 144.265 15.8272 143.619 15.3666C142.992 14.906 142.273 14.6757 141.462 14.6757C140.503 14.6757 139.71 14.9245 139.083 15.4219C138.456 15.9009 138.041 16.5826 137.839 17.467Z" fill="#7E57FF"/>
<path d="M160.8 11.8568H164.368V25.675H160.8V24.0445C159.73 25.3894 158.228 26.0619 156.291 26.0619C154.448 26.0619 152.862 25.3618 151.534 23.9616C150.225 22.5429 149.57 20.811 149.57 18.7659C149.57 16.7208 150.225 14.9981 151.534 13.5979C152.862 12.1792 154.448 11.4699 156.291 11.4699C158.228 11.4699 159.73 12.1424 160.8 13.4874V11.8568ZM154.217 21.5848C154.936 22.3034 155.849 22.6627 156.955 22.6627C158.062 22.6627 158.974 22.3034 159.694 21.5848C160.431 20.8479 160.8 19.9082 160.8 18.7659C160.8 17.6236 160.431 16.6932 159.694 15.9746C158.974 15.2377 158.062 14.8692 156.955 14.8692C155.849 14.8692 154.936 15.2377 154.217 15.9746C153.498 16.6932 153.138 17.6236 153.138 18.7659C153.138 19.9082 153.498 20.8479 154.217 21.5848Z" fill="#7E57FF"/>
<path d="M167.05 25.675V5.93195H170.618V25.675H167.05Z" fill="#7E57FF"/>
<path d="M181.241 15.2837H178.116V21.0321C178.116 21.5111 178.236 21.8612 178.476 22.0823C178.715 22.3034 179.066 22.4323 179.527 22.4692C179.988 22.4876 180.559 22.4784 181.241 22.4416V25.675C178.789 25.9514 177.056 25.7211 176.042 24.9841C175.046 24.2471 174.548 22.9298 174.548 21.0321V15.2837H172.142V11.8568H174.548V9.06553L178.116 7.9755V11.8568H181.241V15.2837Z" fill="#7E57FF"/>
<path d="M190.893 11.4699C192.405 11.4699 193.65 11.9766 194.627 12.9899C195.623 14.0032 196.121 15.4035 196.121 17.1906V25.675H192.553V17.6328C192.553 16.7116 192.304 16.0115 191.806 15.5325C191.308 15.035 190.644 14.7863 189.815 14.7863C188.893 14.7863 188.155 15.0718 187.602 15.643C187.049 16.2142 186.772 17.0709 186.772 18.2132V25.675H183.204V6.42128L186.772 5.33105V13.4044C187.639 12.1147 189.012 11.4699 190.893 11.4699Z" fill="#7E57FF"/>
</svg>
