<svg width="150" height="92" viewBox="0 0 150 92" fill="none" xmlns="http://www.w3.org/2000/svg">
<g clip-path="url(#clip0_1_156)">
<path d="M105.334 49.4615L102.513 50.141C102.485 50.1475 102.459 50.1618 102.439 50.1822C102.418 50.2026 102.404 50.2283 102.398 50.2564L98.9489 79.0513C98.9373 79.0683 98.9312 79.0884 98.9312 79.109C98.9312 79.1296 98.9373 79.1497 98.9489 79.1667C98.9819 79.1795 99.0185 79.1795 99.0515 79.1667L102.295 78.3846C102.323 78.3781 102.349 78.3639 102.369 78.3435C102.39 78.3231 102.404 78.2973 102.41 78.2692L103.103 72.3718L107.949 71.2051L111.539 84.718C111.547 84.7484 111.566 84.775 111.591 84.7936C111.617 84.8122 111.648 84.8217 111.68 84.8205L114.782 84.1667C114.821 84.1529 114.852 84.1255 114.872 84.0897C114.885 84.0568 114.885 84.0202 114.872 83.9872L105.475 49.5769C105.466 49.5452 105.448 49.5169 105.423 49.4961C105.398 49.4754 105.366 49.4632 105.334 49.4615ZM103.487 69.3846L104.769 58.7692L107.334 68.4744L103.487 69.3846Z" fill="white"/>
<path d="M122.743 45.1795C120.833 45.1795 117.692 48.1154 117.615 48.1923V46.6923C117.629 46.6551 117.629 46.6142 117.615 46.5769C117.586 46.5661 117.554 46.5661 117.526 46.5769L114.538 47.3077C114.506 47.3138 114.476 47.3312 114.455 47.3571C114.434 47.3829 114.422 47.4154 114.423 47.4487V73.4872C114.415 73.5053 114.411 73.525 114.411 73.5449C114.411 73.5648 114.415 73.5844 114.423 73.6026H114.513L117.513 72.8974C117.546 72.8914 117.575 72.8739 117.596 72.8481C117.617 72.8222 117.629 72.7898 117.628 72.7564V51.9615C117.961 51.7051 120.41 49.1923 121.615 49.1923C122.282 49.1923 122.615 49.641 122.615 50.5385V71.4872C122.618 71.5236 122.634 71.5578 122.66 71.5836C122.686 71.6095 122.72 71.6253 122.756 71.6282L125.705 70.9231C125.737 70.9149 125.765 70.8969 125.786 70.8715C125.807 70.8461 125.819 70.8148 125.82 70.7821V48.4615C125.782 45.7564 124.128 45.1795 122.743 45.1795Z" fill="white"/>
<path d="M127.974 42.6923V45.5128C127.964 45.5507 127.964 45.5904 127.974 45.6282H128.064L131.423 44.7564V65.7051C131.408 65.7421 131.408 65.7835 131.423 65.8205H131.513L134.743 65.0385C134.775 65.0303 134.803 65.0122 134.824 64.9869C134.845 64.9615 134.857 64.9302 134.859 64.8974V43.9359L139.743 42.8205C139.774 42.8149 139.802 42.7993 139.823 42.7761C139.844 42.7529 139.856 42.7234 139.859 42.6923V39.8846C139.871 39.8472 139.871 39.8066 139.859 39.7692L139.743 39.7436L128.205 42.5513C128.181 42.5374 128.154 42.5302 128.126 42.5306C128.098 42.5309 128.071 42.5387 128.048 42.5531C128.024 42.5676 128.005 42.5881 127.992 42.6126C127.979 42.6371 127.973 42.6646 127.974 42.6923Z" fill="white"/>
<path d="M130.551 28.4359C134.487 26.3077 135.91 22.6154 135.282 20.0256C134.718 17.7308 132.718 16.359 129.859 16.359C128.947 16.3683 128.039 16.4845 127.154 16.7051L124.5 17.359C124.467 17.365 124.437 17.3825 124.416 17.4084C124.395 17.4342 124.384 17.4666 124.384 17.5V40.6538C124.376 40.672 124.372 40.6917 124.372 40.7115C124.372 40.7314 124.376 40.7511 124.384 40.7692C124.398 40.776 124.414 40.7796 124.429 40.7796C124.445 40.7796 124.46 40.776 124.474 40.7692L127.359 40.0769C127.391 40.0688 127.419 40.0507 127.44 40.0253C127.46 40 127.472 39.9686 127.474 39.9359V29.3462L136.064 37.9231C136.097 37.9359 136.133 37.9359 136.166 37.9231L138.949 37.2564C138.973 37.2502 138.996 37.2374 139.014 37.2193C139.032 37.2013 139.045 37.1786 139.051 37.1538C139.063 37.1324 139.07 37.1081 139.07 37.0833C139.07 37.0586 139.063 37.0343 139.051 37.0128C139.051 37.0128 132.513 30.3718 130.551 28.4359ZM127.564 19.4615C128.259 19.2107 128.991 19.0765 129.731 19.0641C130.044 19.0228 130.362 19.0437 130.667 19.1259C130.973 19.208 131.258 19.3497 131.509 19.5427C131.759 19.7357 131.968 19.9763 132.125 20.2506C132.282 20.5249 132.383 20.8275 132.423 21.141C132.641 23.0128 131.013 25.4359 127.564 26.3333V19.4615Z" fill="white"/>
<path d="M96.4617 51.6154L93.5899 52.3205C93.5582 52.3268 93.53 52.3448 93.511 52.3709C93.4919 52.3971 93.4835 52.4294 93.4873 52.4615V73.1667C93.4783 73.1846 93.4736 73.2043 93.4736 73.2244C93.4736 73.2444 93.4783 73.2642 93.4873 73.2821H93.5771L96.4232 72.6026C96.454 72.597 96.4819 72.5814 96.5028 72.5582C96.5237 72.535 96.5363 72.5055 96.5386 72.4744V51.7564C96.5457 51.7402 96.5493 51.7228 96.5493 51.7051C96.5493 51.6875 96.5457 51.67 96.5386 51.6538C96.5189 51.6316 96.4913 51.6178 96.4617 51.6154Z" fill="white"/>
<path d="M75.3588 22.2692L62.8204 25.2949C62.791 25.3052 62.7655 25.3243 62.7472 25.3495C62.7289 25.3746 62.7186 25.4048 62.7178 25.4359V28.5385C62.7088 28.5564 62.7041 28.5761 62.7041 28.5962C62.7041 28.6162 62.7088 28.636 62.7178 28.6538C62.732 28.6598 62.7473 28.6629 62.7627 28.6629C62.7781 28.6629 62.7934 28.6598 62.8076 28.6538L67.3588 27.5641V54.4872C67.3498 54.5051 67.3451 54.5248 67.3451 54.5449C67.3451 54.5649 67.3498 54.5847 67.3588 54.6026C67.373 54.6086 67.3883 54.6116 67.4037 54.6116C67.4191 54.6116 67.4344 54.6086 67.4486 54.6026L70.5127 53.8462C70.5444 53.838 70.5728 53.8199 70.5935 53.7946C70.6143 53.7692 70.6264 53.7379 70.6281 53.7051V26.7821L75.3845 25.641C75.4162 25.6329 75.4445 25.6148 75.4653 25.5894C75.4861 25.5641 75.4982 25.5327 75.4999 25.5V22.4231C75.5136 22.3858 75.5136 22.3449 75.4999 22.3077C75.4821 22.289 75.4596 22.2755 75.4347 22.2688C75.4099 22.262 75.3836 22.2621 75.3588 22.2692Z" fill="white"/>
<path d="M58.4489 45.1282C57.6283 43.6795 56.8591 42.3077 56.3206 41.2821C54.4745 37.8205 55.2053 36.1538 56.3206 35.5128C56.521 35.3887 56.7516 35.3221 56.9873 35.3205C57.5258 35.3205 58.8335 35.3205 59.9873 39.0641C59.9929 39.0837 60.0026 39.1019 60.0159 39.1174C60.0292 39.1329 60.0457 39.1453 60.0642 39.1538H60.2565L63.6283 37.6154C63.6584 37.6 63.6831 37.5758 63.6992 37.546C63.7152 37.5163 63.7218 37.4823 63.7181 37.4487C62.2565 32.2436 59.654 31.1538 57.7309 31.1538C56.5024 31.1886 55.3097 31.5757 54.295 32.2692C51.795 33.9744 49.7181 37.6795 52.1412 42.5256C53.1027 44.4359 54.1668 46.2821 55.2181 48.0641C56.5746 50.332 57.7699 52.6925 58.795 55.1282C59.9232 57.9359 59.8976 60.0897 58.9745 61.7564C58.7481 62.1874 58.4258 62.5607 58.0323 62.8474C57.6389 63.1342 57.1849 63.3267 56.7053 63.4103C56.5902 63.4229 56.4742 63.4229 56.3591 63.4103C53.654 63.4103 53.6796 57.5769 53.6796 57.5128C53.6914 57.4796 53.6914 57.4434 53.6796 57.4103C53.6466 57.3974 53.61 57.3974 53.5771 57.4103L49.5642 58.1154C49.5291 58.1186 49.4964 58.1349 49.4727 58.161C49.449 58.1871 49.4359 58.2211 49.436 58.2564C49.436 64.5641 51.795 68.3462 55.7565 68.3462C56.144 68.3446 56.5303 68.306 56.9104 68.2308C58.1286 67.9506 59.2701 67.4057 60.2539 66.6346C61.2377 65.8635 62.0396 64.8852 62.6027 63.7692C63.4405 62.0591 63.876 60.18 63.876 58.2756C63.876 56.3713 63.4405 54.4922 62.6027 52.782C61.8719 51.2051 60.0514 47.9744 58.4489 45.1282Z" fill="white"/>
<path d="M94.7438 41.1538C94.7409 41.1208 94.7265 41.0899 94.7031 41.0664C94.6796 41.043 94.6487 41.0285 94.6156 41.0256L91.6028 41.7564C91.5763 41.7636 91.5525 41.7783 91.5343 41.7988C91.5161 41.8193 91.5043 41.8447 91.5002 41.8718V41.9615C91.1541 45.3718 90.3592 46.0641 89.2951 46.0641C87.5515 46.0641 86.5387 42.8846 86.5387 36.6026C86.5387 29.1923 87.6669 25.8718 89.2951 25.8718C90.1284 25.8718 91.1284 26.3462 91.5259 30.0385V30.1795C91.518 30.1954 91.5139 30.213 91.5139 30.2308C91.5139 30.2486 91.518 30.2661 91.5259 30.2821H91.6028L94.5131 29.6667C94.5458 29.6577 94.5742 29.6372 94.5931 29.6089C94.6119 29.5806 94.6199 29.5465 94.6156 29.5128V29.3974C94.0259 24.4872 91.5515 22.2949 89.3592 22.2949H88.9746C85.8592 22.2949 83.0259 26.5385 83.0259 36.5513C83.0259 47.641 86.9618 49.6154 89.2054 49.6154C90.8849 49.6154 93.8207 48.5385 94.6925 41.3077L94.7438 41.1538Z" fill="white"/>
<path d="M116.372 42.8461C119.654 42.8461 121.5 40.2821 121.974 35.0897V34.8974C121.982 34.8793 121.987 34.8596 121.987 34.8397C121.987 34.8199 121.982 34.8002 121.974 34.782H121.872L118.961 35.3974C118.929 35.4025 118.899 35.4176 118.876 35.4406C118.853 35.4637 118.838 35.4934 118.833 35.5256V35.6154C118.513 38.3205 117.718 39.7051 116.461 39.7051C115.384 39.7436 114.102 38.9359 114.102 32.5385V31.9103L120.859 30.5128L121.936 30.3077C121.97 30.302 122.001 30.285 122.024 30.2594C122.048 30.2338 122.062 30.2012 122.064 30.1667V30.0385C121.461 21.9487 117.936 21.0641 116.449 21.0641C114.308 21.0641 110.718 22.5513 110.718 32.5256C110.641 42.1026 115.025 42.8461 116.372 42.8461ZM116.372 24.3205C117.577 24.3205 118.346 25.6795 118.692 28.4744L114.102 29.3333C114.372 25.1667 115.167 24.359 116.372 24.359V24.3205Z" fill="white"/>
<path d="M89.4873 63.4615C89.4873 63.4615 89.4873 63.3846 89.4873 63.3718C89.4873 63.359 89.4873 63.3718 89.4104 63.3718L82.4745 64.7436C82.443 64.7547 82.416 64.7756 82.3975 64.8034C82.379 64.8311 82.37 64.8641 82.3719 64.8974L82.6283 67.6667C82.6299 67.6835 82.6348 67.6999 82.6428 67.7149C82.6508 67.7298 82.6616 67.743 82.6748 67.7538C82.6879 67.7645 82.703 67.7725 82.7192 67.7774C82.7355 67.7822 82.7525 67.7838 82.7693 67.7821L86.2693 67.0641C86.3847 68.7051 86.3719 71.4744 85.2052 72.7436C85.0074 72.9678 84.762 73.1452 84.487 73.2627C84.212 73.3802 83.9143 73.435 83.6155 73.4231H83.4745C82.6924 73.4231 81.8206 72.4359 81.154 70.859C80.3744 68.9407 80.0201 66.8761 80.1155 64.8077C80.2693 60.0641 82.0642 57.1154 83.6668 56.8077C83.799 56.796 83.932 56.796 84.0642 56.8077C85.077 56.8077 85.6924 57.9615 86.0386 60.5128V60.718C86.0386 60.718 86.0386 60.7949 86.0386 60.8077C86.0386 60.8205 86.0386 60.8077 86.1155 60.8077L89.0642 60.2564C89.097 60.2504 89.1266 60.2329 89.1477 60.207C89.1689 60.1812 89.1801 60.1487 89.1796 60.1154V59.9231C88.577 55.4872 86.936 53.2436 84.295 53.2436H83.936C80.0899 53.5256 76.9745 58.5769 76.7693 64.7821C76.6283 69.1538 77.9104 73.4487 80.0386 75.718C80.4531 76.1945 80.9574 76.5847 81.5227 76.8663C82.0881 77.1479 82.7034 77.3153 83.3334 77.359H83.5386C84.3033 77.3951 85.0663 77.2595 85.7718 76.9623C86.4773 76.665 87.1073 76.2135 87.6155 75.641C90.5642 72.2436 89.7181 65.1026 89.5129 63.7051L89.4873 63.4615Z" fill="white"/>
<path d="M79.1792 51.6923V33.3333C79.1874 33.3152 79.1916 33.2955 79.1916 33.2756C79.1916 33.2558 79.1874 33.2361 79.1792 33.2179H79.0895L76.0895 33.9487C76.0578 33.9569 76.0294 33.9749 76.0087 34.0003C75.9879 34.0257 75.9758 34.057 75.9741 34.0897V52.4231C75.9756 52.4459 75.9821 52.468 75.9932 52.488C76.0043 52.508 76.0197 52.5252 76.0382 52.5385H76.128L79.1408 51.8077C79.1554 51.7925 79.1664 51.7743 79.1731 51.7544C79.1798 51.7344 79.1819 51.7132 79.1792 51.6923Z" fill="white"/>
<path d="M77.5385 31.4615C77.9013 31.4515 78.2531 31.3347 78.5499 31.1258C78.8466 30.9169 79.0753 30.6252 79.2072 30.2871C79.3391 29.949 79.3684 29.5795 79.2915 29.2248C79.2146 28.8701 79.0348 28.546 78.7747 28.2929C78.5146 28.0398 78.1856 27.869 77.829 27.8018C77.4723 27.7347 77.1038 27.7741 76.7694 27.9152C76.4351 28.0563 76.1497 28.2929 75.949 28.5952C75.7484 28.8976 75.6413 29.2525 75.6411 29.6154C75.641 29.8622 75.6904 30.1065 75.7864 30.3339C75.8824 30.5613 76.0229 30.7672 76.1998 30.9393C76.3767 31.1114 76.5864 31.2463 76.8163 31.336C77.0462 31.4257 77.2918 31.4684 77.5385 31.4615Z" fill="white"/>
<path d="M101.538 46.2692V40.0897L106.91 45C106.939 45.0098 106.971 45.0098 107 45L110.436 44.1795C110.461 44.1733 110.483 44.1605 110.501 44.1424C110.519 44.1243 110.532 44.1017 110.538 44.0769C110.551 44.0555 110.557 44.0312 110.557 44.0064C110.557 43.9817 110.551 43.9573 110.538 43.9359L102.346 35.8974L110.038 22.4615C110.054 22.4367 110.063 22.4078 110.063 22.3782C110.063 22.3486 110.054 22.3197 110.038 22.2949C110.001 22.2851 109.961 22.2851 109.923 22.2949L106.077 23.2308C106.047 23.2249 106.017 23.2249 105.987 23.2308L101.564 30.9231V10.5641C101.579 10.5271 101.579 10.4857 101.564 10.4487H101.474L98.2948 11.2051C98.263 11.2114 98.2348 11.2294 98.2158 11.2555C98.1968 11.2817 98.1884 11.314 98.1922 11.3462V47.0513C98.1843 47.0672 98.1802 47.0848 98.1802 47.1026C98.1802 47.1204 98.1843 47.1379 98.1922 47.1538C98.2213 47.1636 98.2528 47.1636 98.2819 47.1538L101.449 46.3846C101.472 46.3743 101.492 46.3584 101.508 46.3383C101.524 46.3181 101.534 46.2944 101.538 46.2692Z" fill="white"/>
<path d="M116.372 24.359C115.167 24.359 114.372 25.2051 114.115 29.3718L118.692 28.5128C118.346 25.641 117.577 24.359 116.372 24.359Z" fill="white"/>
<path d="M127.603 4.79487C114.897 -2.70513 92.0385 -1.75641 78.5 10.0897C79.6408 9.21742 80.9428 8.57919 82.3312 8.21176C83.7195 7.84433 85.1667 7.75493 86.5897 7.94872C91.1538 8.79487 91.8846 14.4231 88.7051 17.3462C84.6795 21.0513 79.1923 17.141 75.2179 15.5769C64.5769 11.4231 48.2949 13.7821 43.8205 25.8333C48.5513 17.9231 54.359 19.5385 56.0513 22.6538C56.4375 23.3914 56.6478 24.2082 56.6659 25.0405C56.6839 25.8728 56.5092 26.698 56.1554 27.4515C55.8016 28.2051 55.2783 28.8666 54.6263 29.3843C53.9744 29.9021 53.2115 30.262 52.3974 30.4359C47.9744 31.5897 32.5 30.1154 24.4359 44.1026C29.7436 37.4359 35.6538 36.6026 38.7179 39.7564C41.782 42.9103 40.5769 48.5897 34.3205 49.6795C18.1282 52.4359 8.76923 56.4103 0 63.0128C19.7436 51.7051 30.8974 63.4744 32.4487 64.9103C34 66.3462 41.7692 73.8205 50.2692 75.5256C52.8806 76.1021 55.5816 76.1449 58.2099 75.6514C60.8382 75.1579 63.3397 74.1383 65.5641 72.6538C67.9487 71.2564 70.8718 70.5128 72.1795 73.0769C73.1667 74.9231 72.3461 77.7564 68.5 79.7821C65.0385 81.6154 55.5897 82.9744 51.0128 81.1795C52.9744 84.3077 59.5128 87.2821 70.2436 86.3077C80.9744 85.3333 86.6667 81.4615 88.9744 79.1026C90.5769 77.4872 92.0513 76.9231 93.4744 77.8205C93.7587 78.0426 93.9955 78.3196 94.1707 78.6351C94.3459 78.9505 94.4559 79.2979 94.4941 79.6567C94.5324 80.0155 94.4982 80.3783 94.3935 80.7236C94.2888 81.0689 94.1157 81.3896 93.8846 81.6667C92.4434 83.28 90.6586 84.5495 88.6616 85.3816C86.6647 86.2136 84.5066 86.5871 82.3462 86.4744C84.3333 88.3205 92.7564 92.8846 106.474 91.6026C123.077 90.0897 149.667 75.9487 150 42.7564C150.167 26.359 140.603 12.4744 127.603 4.79487ZM116.372 21.0769C117.859 21.0769 121.385 21.9487 121.987 30.0513V30.1795C121.985 30.214 121.971 30.2467 121.948 30.2722C121.924 30.2978 121.893 30.3148 121.859 30.3205L120.782 30.5256L114.103 31.9103V32.5385C114.103 38.9487 115.385 39.6795 116.436 39.6795C117.718 39.6795 118.487 38.2949 118.808 35.5897V35.5C118.813 35.4678 118.828 35.438 118.851 35.415C118.874 35.392 118.904 35.3768 118.936 35.3718L121.795 34.7564H121.897C121.906 34.7746 121.91 34.7942 121.91 34.8141C121.91 34.834 121.906 34.8537 121.897 34.8718V35.0641C121.462 40.1923 119.577 42.8205 116.295 42.8205C115.013 42.8205 110.564 42.0769 110.564 32.5641C110.641 22.5641 114.231 21.0769 116.372 21.0769ZM62.5256 63.718C61.9626 64.8339 61.1606 65.8122 60.1768 66.5833C59.193 67.3544 58.0515 67.8993 56.8333 68.1795C56.4533 68.2547 56.0669 68.2934 55.6795 68.2949C51.7179 68.2949 49.359 64.4487 49.359 58.2051C49.3588 58.1699 49.3719 58.1358 49.3956 58.1097C49.4194 58.0836 49.452 58.0673 49.4872 58.0641L53.5 57.359C53.533 57.3461 53.5696 57.3461 53.6026 57.359C53.6143 57.3922 53.6143 57.4284 53.6026 57.4615C53.6026 57.4615 53.6026 63.359 56.282 63.359C56.3971 63.3716 56.5132 63.3716 56.6282 63.359C57.1228 63.2852 57.593 63.0959 58.0006 62.8063C58.4083 62.5167 58.7419 62.135 58.9744 61.6923C59.8974 60.0256 59.9231 57.8462 58.7949 55.0641C57.7359 52.6654 56.5107 50.3435 55.1282 48.1154C54.0769 46.3333 53.0128 44.4872 52.0513 42.5769C49.6282 37.718 51.7051 34.0128 54.2051 32.3205C55.2329 31.6131 56.4449 31.221 57.6923 31.1923C59.6154 31.1923 62.2179 32.2821 63.6795 37.4872C63.6832 37.5208 63.6766 37.5547 63.6606 37.5845C63.6445 37.6143 63.6198 37.6384 63.5897 37.6538L60.2564 39.1923H60.141C60.1225 39.1838 60.106 39.1714 60.0927 39.1559C60.0794 39.1404 60.0697 39.1222 60.0641 39.1026C58.9103 35.3462 57.6026 35.359 57.0641 35.359C56.8284 35.3606 56.5978 35.4271 56.3974 35.5513C55.2692 36.2436 54.5385 37.859 56.3974 41.3205C56.9359 42.3077 57.6795 43.6795 58.5256 45.1667C60.1282 48.0128 61.9487 51.2436 62.6026 52.7692C63.4223 54.4802 63.8414 56.3554 63.8281 58.2525C63.8147 60.1496 63.3693 62.0187 62.5256 63.718ZM75.5 25.5256C75.4983 25.5584 75.4862 25.5897 75.4654 25.6151C75.4447 25.6404 75.4164 25.6585 75.3846 25.6667L70.6538 26.7949V53.718C70.6482 53.7521 70.6312 53.7833 70.6056 53.8065C70.58 53.8298 70.5473 53.8437 70.5128 53.8462L67.4872 54.5897C67.473 54.5957 67.4577 54.5988 67.4423 54.5988C67.4269 54.5988 67.4116 54.5957 67.3974 54.5897C67.3884 54.5719 67.3837 54.5521 67.3837 54.5321C67.3837 54.512 67.3884 54.4923 67.3974 54.4744V27.5513L62.8205 28.6795C62.8063 28.6855 62.7911 28.6886 62.7756 28.6886C62.7602 28.6886 62.745 28.6855 62.7308 28.6795C62.7217 28.6616 62.7171 28.6418 62.7171 28.6218C62.7171 28.6018 62.7217 28.582 62.7308 28.5641V25.4359C62.7316 25.4048 62.7418 25.3746 62.7601 25.3495C62.7785 25.3243 62.804 25.3052 62.8333 25.2949L75.4872 22.2564C75.5163 22.2466 75.5478 22.2466 75.5769 22.2564C75.5907 22.2936 75.5907 22.3346 75.5769 22.3718L75.5 25.5256ZM77.5385 27.7692C77.9012 27.7793 78.253 27.8961 78.5498 28.105C78.8466 28.3139 79.0752 28.6056 79.2071 28.9437C79.339 29.2818 79.3683 29.6513 79.2914 30.006C79.2145 30.3606 79.0347 30.6848 78.7746 30.9379C78.5145 31.1909 78.1855 31.3617 77.8289 31.4289C77.4722 31.4961 77.1037 31.4567 76.7693 31.3156C76.435 31.1744 76.1496 30.9379 75.9489 30.6355C75.7483 30.3331 75.6412 29.9783 75.641 29.6154C75.6409 29.3686 75.6903 29.1242 75.7863 28.8968C75.8823 28.6694 76.0229 28.4636 76.1998 28.2915C76.3767 28.1194 76.5863 27.9845 76.8162 27.8948C77.0461 27.8051 77.2917 27.7624 77.5385 27.7692ZM76.0385 52.5641H75.9487C75.9301 52.5508 75.9147 52.5336 75.9037 52.5136C75.8926 52.4937 75.8861 52.4715 75.8846 52.4487V34.1154C75.8863 34.0827 75.8984 34.0513 75.9192 34.026C75.9399 34.0006 75.9682 33.9825 76 33.9744L79 33.2436H79.0897C79.0979 33.2617 79.1021 33.2814 79.1021 33.3013C79.1021 33.3212 79.0979 33.3408 79.0897 33.359V51.6923C79.0909 51.7239 79.0815 51.755 79.0629 51.7806C79.0443 51.8062 79.0176 51.8247 78.9872 51.8333L76.0641 52.5641H76.0385ZM87.5769 75.641C87.0777 76.2177 86.4562 76.6757 85.7575 76.9818C85.0589 77.2879 84.3008 77.4342 83.5385 77.4103H83.3333C82.6893 77.3538 82.0634 77.168 81.4928 76.864C80.9223 76.56 80.4189 76.144 80.0128 75.641C77.8846 73.3718 76.6026 69.0769 76.7436 64.7051C76.9487 58.5385 80.0897 53.4872 83.9102 53.1667H84.2692C86.9103 53.1667 88.5513 55.4103 89.1538 59.8462V60.0385C89.1544 60.0718 89.1431 60.1043 89.122 60.1301C89.1009 60.1559 89.0713 60.1734 89.0385 60.1795L86.2308 60.7308C86.2308 60.7308 86.1667 60.7308 86.1538 60.7308C86.141 60.7308 86.1538 60.7308 86.1538 60.641V60.4359C85.8077 57.8718 85.1923 56.7308 84.1795 56.7308C84.0473 56.7191 83.9143 56.7191 83.782 56.7308C82.1795 57.0641 80.3846 59.9872 80.2308 64.7308C80.1354 66.7992 80.4897 68.8638 81.2692 70.7821C81.9359 72.3462 82.8077 73.3462 83.5897 73.3462H83.7308C84.0296 73.3581 84.3273 73.3033 84.6023 73.1858C84.8773 73.0683 85.1226 72.8909 85.3205 72.6667C86.4872 71.3846 86.5 68.6282 86.3846 66.9872L82.8846 67.7051C82.8678 67.7069 82.8507 67.7053 82.8345 67.7005C82.8183 67.6956 82.8031 67.6876 82.79 67.6769C82.7769 67.6661 82.7661 67.6529 82.7581 67.638C82.7501 67.623 82.7452 67.6066 82.7436 67.5897L82.4872 64.8205C82.4853 64.7872 82.4943 64.7542 82.5128 64.7265C82.5313 64.6987 82.5583 64.6777 82.5897 64.6667L89.4359 63.2692C89.4359 63.2692 89.4359 63.2692 89.5128 63.2692C89.5897 63.2692 89.5128 63.2692 89.5128 63.359V63.5641C89.7436 65.0641 90.5641 72.2051 87.6154 75.641H87.5769ZM89.2051 49.6667C86.9615 49.6667 83.0256 47.6923 83.0256 36.6026C83.0256 26.5897 85.859 22.3462 88.9744 22.3462H89.359C91.5513 22.3462 94.0256 24.5385 94.6154 29.4487V29.4872C94.6197 29.5209 94.6117 29.555 94.5928 29.5833C94.574 29.6115 94.5456 29.632 94.5128 29.641L91.6026 30.2564H91.5256C91.5177 30.2405 91.5136 30.2229 91.5136 30.2051C91.5136 30.1873 91.5177 30.1698 91.5256 30.1538V30.0128C91.1282 26.3205 90.1282 25.8462 89.2949 25.8462C87.6667 25.8462 86.5385 29.1667 86.5385 36.5769C86.5385 42.859 87.5513 46.0385 89.2949 46.0385C90.359 46.0385 91.1538 45.3462 91.5 41.9359V41.8462C91.504 41.819 91.5159 41.7937 91.5341 41.7732C91.5523 41.7527 91.5761 41.738 91.6026 41.7308L94.5769 41.0256C94.6143 41.0256 94.6502 41.0405 94.6766 41.067C94.7031 41.0934 94.7179 41.1293 94.7179 41.1667V41.359C93.859 48.5513 90.9231 49.6282 89.2436 49.6282L89.2051 49.6667ZM96.5641 72.5385C96.5618 72.5696 96.5492 72.5991 96.5283 72.6223C96.5074 72.6455 96.4794 72.6611 96.4487 72.6667L93.5897 73.3077H93.5C93.491 73.2898 93.4863 73.27 93.4863 73.25C93.4863 73.23 93.491 73.2102 93.5 73.1923V52.4615C93.4962 52.4294 93.5046 52.3971 93.5236 52.3709C93.5426 52.3448 93.5708 52.3268 93.6026 52.3205L96.4615 51.6282C96.4864 51.6194 96.5136 51.6194 96.5385 51.6282C96.5455 51.6444 96.5492 51.6618 96.5492 51.6795C96.5492 51.6971 96.5455 51.7146 96.5385 51.7308L96.5641 72.5385ZM98.1795 47.2308C98.1504 47.2405 98.1189 47.2405 98.0897 47.2308C98.0818 47.2148 98.0777 47.1973 98.0777 47.1795C98.0777 47.1617 98.0818 47.1441 98.0897 47.1282V11.3205C98.0859 11.2884 98.0943 11.256 98.1134 11.2299C98.1324 11.2037 98.1606 11.1857 98.1923 11.1795L101.372 10.4231H101.462C101.477 10.4601 101.477 10.5015 101.462 10.5385V30.8333L105.885 23.141C105.914 23.1352 105.945 23.1352 105.974 23.141L109.821 22.2051C109.858 22.1954 109.898 22.1954 109.936 22.2051C109.952 22.23 109.96 22.2589 109.96 22.2885C109.96 22.318 109.952 22.347 109.936 22.3718L102.346 35.8974L110.538 44.0385C110.551 44.0599 110.557 44.0842 110.557 44.109C110.557 44.1337 110.551 44.1581 110.538 44.1795C110.532 44.2043 110.519 44.2269 110.501 44.245C110.483 44.263 110.461 44.2759 110.436 44.2821L107 45.1026C106.971 45.1123 106.939 45.1123 106.91 45.1026L101.538 40.0897V46.2692C101.537 46.302 101.525 46.3333 101.504 46.3587C101.483 46.384 101.455 46.4021 101.423 46.4103L98.2564 47.1795L98.1795 47.2308ZM114.846 84.1282C114.827 84.164 114.795 84.1913 114.756 84.2051L111.654 84.859C111.622 84.8602 111.591 84.8507 111.566 84.8321C111.54 84.8135 111.521 84.7868 111.513 84.7564L108.013 71.2436L103.167 72.4103L102.474 78.3077C102.468 78.3358 102.454 78.3615 102.433 78.3819C102.413 78.4024 102.387 78.4166 102.359 78.4231L99.1154 79.2051C99.0824 79.218 99.0458 79.218 99.0128 79.2051C99.0012 79.1881 98.995 79.168 98.995 79.1474C98.995 79.1269 99.0012 79.1068 99.0128 79.0897L102.436 50.3077C102.442 50.2796 102.457 50.2538 102.477 50.2334C102.497 50.213 102.523 50.1988 102.551 50.1923L105.372 49.5128C105.405 49.5145 105.436 49.5266 105.461 49.5474C105.487 49.5681 105.505 49.5965 105.513 49.6282L114.962 84.0385C114.949 84.0597 114.932 84.0774 114.91 84.0897L114.846 84.1282ZM125.718 70.8205C125.716 70.8533 125.704 70.8846 125.683 70.9099C125.663 70.9353 125.634 70.9534 125.603 70.9615L122.654 71.6667C122.617 71.6637 122.583 71.6479 122.557 71.6221C122.532 71.5963 122.516 71.5621 122.513 71.5256V50.5385C122.513 49.641 122.179 49.1923 121.513 49.1923C120.308 49.1923 117.859 51.7564 117.526 51.9615V72.7821C117.526 72.8154 117.515 72.8479 117.494 72.8737C117.473 72.8995 117.443 72.917 117.41 72.9231L114.41 73.6282H114.321C114.312 73.6101 114.308 73.5904 114.308 73.5705C114.308 73.5506 114.312 73.531 114.321 73.5128V47.4359C114.32 47.4025 114.331 47.3701 114.352 47.3443C114.373 47.3184 114.403 47.3009 114.436 47.2949L117.423 46.5641C117.452 46.5533 117.484 46.5533 117.513 46.5641C117.527 46.6013 117.527 46.6423 117.513 46.6795V48.1795C117.641 48.1026 120.782 45.1667 122.641 45.1667C124.026 45.1667 125.679 45.7436 125.679 48.4487L125.718 70.8205ZM139.744 39.7436H139.821C139.833 39.781 139.833 39.8216 139.821 39.859V42.6923C139.818 42.7234 139.806 42.7529 139.785 42.7761C139.764 42.7993 139.736 42.8149 139.705 42.8205L135.038 43.9359V64.9231C135.037 64.9558 135.025 64.9871 135.004 65.0125C134.983 65.0379 134.955 65.056 134.923 65.0641L131.692 65.8462H131.603C131.588 65.8092 131.588 65.7678 131.603 65.7308V44.7692L128.205 45.641H128.115C128.106 45.6032 128.106 45.5635 128.115 45.5256V42.6923C128.117 42.6596 128.129 42.6282 128.15 42.6029C128.171 42.5775 128.199 42.5594 128.231 42.5513L139.769 39.7436H139.744ZM139.231 37.1795C139.225 37.2043 139.212 37.2269 139.194 37.245C139.176 37.263 139.153 37.2758 139.128 37.2821L136.346 37.9487C136.313 37.9616 136.277 37.9616 136.244 37.9487L127.654 29.3718V39.9872C127.652 40.0199 127.64 40.0512 127.619 40.0766C127.599 40.102 127.57 40.1201 127.538 40.1282L124.654 40.8205C124.64 40.8273 124.625 40.8309 124.609 40.8309C124.593 40.8309 124.578 40.8273 124.564 40.8205C124.556 40.8024 124.552 40.7827 124.552 40.7628C124.552 40.7429 124.556 40.7233 124.564 40.7051V17.5C124.564 17.4666 124.575 17.4342 124.596 17.4084C124.617 17.3825 124.647 17.365 124.679 17.359L127.154 16.6667C128.039 16.446 128.947 16.3299 129.859 16.3205C132.692 16.3205 134.718 17.6923 135.282 19.9872C135.91 22.5513 134.487 26.2692 130.551 28.3974C132.513 30.3333 139.064 36.9487 139.128 37.0128C139.152 37.0326 139.169 37.0595 139.176 37.0897C139.183 37.1198 139.179 37.1513 139.167 37.1795H139.231Z" fill="white"/>
<path d="M132.423 21.1282C132.383 20.8147 132.282 20.5121 132.125 20.2378C131.968 19.9635 131.759 19.7229 131.509 19.5299C131.258 19.3368 130.973 19.1952 130.667 19.1131C130.362 19.0309 130.044 19.0099 129.731 19.0513C128.991 19.0636 128.259 19.1979 127.564 19.4487V26.3205C131.013 25.4231 132.641 23 132.423 21.1282Z" fill="white"/>
<path d="M103.487 69.3846L107.295 68.4744L104.757 58.7692L103.487 69.3846Z" fill="white"/>
<path d="M118.692 76.9231C118.705 77.3496 118.59 77.7702 118.362 78.1309C118.134 78.4916 117.804 78.7759 117.413 78.9475C117.022 79.1191 116.589 79.17 116.169 79.0937C115.75 79.0174 115.362 78.8174 115.057 78.5194C114.751 78.2214 114.542 77.839 114.456 77.4211C114.369 77.0033 114.409 76.5691 114.571 76.1744C114.733 75.7796 115.01 75.4423 115.365 75.2056C115.72 74.969 116.137 74.8438 116.564 74.8462C116.841 74.8411 117.115 74.8909 117.373 74.9929C117.63 75.0948 117.864 75.2468 118.062 75.44C118.26 75.6332 118.418 75.8637 118.526 76.1183C118.634 76.3729 118.691 76.6465 118.692 76.9231ZM114.949 76.9231C114.944 77.1401 114.982 77.356 115.061 77.558C115.141 77.76 115.26 77.944 115.412 78.0993C115.563 78.2546 115.745 78.378 115.945 78.4622C116.145 78.5464 116.36 78.5898 116.577 78.5897C116.992 78.5532 117.378 78.3625 117.66 78.0552C117.941 77.7479 118.097 77.3462 118.097 76.9295C118.097 76.5127 117.941 76.1111 117.66 75.8038C117.378 75.4965 116.992 75.3057 116.577 75.2692C116.36 75.2674 116.146 75.3092 115.946 75.392C115.746 75.4748 115.564 75.597 115.412 75.7513C115.261 75.9055 115.141 76.0888 115.062 76.2901C114.982 76.4914 114.943 76.7066 114.949 76.9231ZM116.231 78.0128H115.756V75.9359C116.021 75.9096 116.287 75.9096 116.551 75.9359C116.8 75.9161 117.05 75.9696 117.269 76.0897C117.336 76.1461 117.389 76.2169 117.425 76.2969C117.46 76.3768 117.477 76.4638 117.474 76.5513C117.465 76.6675 117.416 76.7772 117.338 76.8631C117.259 76.9489 117.153 77.0061 117.038 77.0256C117.143 77.0675 117.235 77.1375 117.303 77.228C117.371 77.3185 117.412 77.4259 117.423 77.5385C117.445 77.7168 117.497 77.8902 117.577 78.0513H117.051C116.972 77.8947 116.919 77.7256 116.897 77.5513C116.897 77.3205 116.731 77.2179 116.461 77.2179H116.231V78.0128ZM116.231 76.8333H116.461C116.731 76.8333 116.936 76.7436 116.936 76.5385C116.936 76.3333 116.808 76.2179 116.5 76.2179H116.231V76.8333Z" fill="white"/>
</g>
<defs>
<clipPath id="clip0_1_156">
<rect width="150" height="91.7949" fill="white"/>
</clipPath>
</defs>
</svg>
