<svg width="150" height="53" viewBox="0 0 150 53" fill="none" xmlns="http://www.w3.org/2000/svg">
<g clip-path="url(#clip0_1_200)">
<path fill-rule="evenodd" clip-rule="evenodd" d="M149.451 12.2844V16.2471H148.785V13.253L147.541 16.2471H147.008L145.72 13.253V16.2471H145.099V12.2844H145.943L147.23 15.4104L148.607 12.2844H149.451ZM141.368 12.2844H144.255V12.8564H143.189V16.2471H142.478V12.8564H141.368V12.2844ZM142.51 28.4428V40.9031H137.003V29.0589C137.003 25.8011 135.315 23.6878 132.073 23.6878C128.832 23.6878 126.878 25.8893 126.878 29.5433V40.9031H121.371V12.2844H126.878V21.6628C128.254 20.0334 130.43 19.1525 133.406 19.1525C138.513 19.1525 142.51 22.807 142.51 28.4428ZM116.575 36.2359H118.751V40.9031H115.864C110.624 40.9031 108.358 38.4379 108.358 33.3741V24.0839H105.783V19.4609H108.358V13.605H113.866V19.4609H118.706V24.0839H113.866V33.4178C113.866 35.3114 114.443 36.2359 116.575 36.2359ZM97.6115 30.204C97.6115 26.5055 95.3915 23.952 91.8836 23.952C88.3751 23.952 86.1991 26.3736 86.1991 30.204C86.1991 33.7702 88.1531 36.3683 91.8836 36.3683C95.258 36.3683 97.6115 33.9467 97.6115 30.204ZM97.6115 19.4609H103.119V40.9031H97.6115V38.4815C96.1465 40.1987 93.8375 41.1673 90.5951 41.1673C84.7327 41.1673 80.6032 36.5884 80.6032 30.204C80.6032 23.8638 84.6446 19.1966 90.5951 19.1966C93.7481 19.1966 96.1465 20.2976 97.6115 22.1467V19.4609ZM73.4978 22.7633C73.4978 19.7692 71.7658 18.0079 68.6123 18.0079H64.2159V27.7388H68.6123C71.7658 27.7388 73.4978 25.9775 73.4978 22.7633ZM79.0932 22.7633C79.0932 28.6187 75.1852 32.0972 69.1898 32.0972H64.2159V40.9031H58.7094V13.605H69.1898C75.2742 13.605 79.0932 17.1275 79.0932 22.7633ZM36.6376 40.9031H42.1451V19.4609H36.6376V40.9031ZM42.7661 13.605C42.7661 15.5422 41.3451 16.8633 39.3911 16.8633C37.4371 16.8633 36.0161 15.5422 36.0161 13.605C36.0161 11.6236 37.4371 10.2589 39.3911 10.2589C41.3451 10.2589 42.7661 11.6236 42.7661 13.605ZM26.7787 13.605H32.2862V29.5879C32.2862 36.8085 28.1557 41.1673 21.1833 41.1673C14.3444 41.1673 10.3029 36.8962 10.3029 29.5879V13.605H15.8098V29.5879C15.8098 33.5942 17.4973 36.0158 21.3163 36.0158C25.0027 36.0158 26.7787 33.7266 26.7787 29.5879V13.605ZM5.50742 47.2874H47.6965V5.45934H5.50742V47.2874ZM0 52.7473H53.2025V0H0V52.7473Z" fill="white"/>
</g>
<defs>
<clipPath id="clip0_1_200">
<rect width="150" height="52.7473" fill="white"/>
</clipPath>
</defs>
</svg>
