<svg viewBox="0 0 64 25" xmlns="http://www.w3.org/2000/svg"><path d="M10.46 24.284H7.672c-.861 0-1.633-.53-1.948-1.337L0 8.287h4.247c.906 0 1.71.59 1.991 1.459l2.875 8.917h.096l2.875-8.917a2.096 2.096 0 0 1 1.992-1.458h4.056l-5.724 14.66a2.095 2.095 0 0 1-1.948 1.336m9.742.001h5.225V8.288h-5.225zm15.04-12.079v6.127c0 .752.144 1.316.43 1.693.286.376.802.564 1.546.564.254 0 .525-.02.812-.064a2.72 2.72 0 0 0 .717-.193l.064 3.854c-.361.13-.818.242-1.37.338a9.589 9.589 0 0 1-1.657.145c-1.062 0-1.955-.135-2.677-.402-.722-.269-1.301-.655-1.737-1.16a4.572 4.572 0 0 1-.94-1.804 8.88 8.88 0 0 1-.287-2.334v-6.764h-2.55V8.288h2.52V6.19a2.1 2.1 0 0 1 2.092-2.11h3.037v4.208h3.728v3.918h-3.728zm15.55 5.108h-.67c-.573 0-1.152.026-1.736.08a7.027 7.027 0 0 0-1.562.306c-.456.15-.833.37-1.13.658-.298.289-.447.67-.447 1.14 0 .3.069.557.207.771.138.215.314.386.526.514.212.128.457.22.732.273.277.054.543.08.797.08 1.063 0 1.875-.294 2.438-.883.563-.588.845-1.386.845-2.393v-.546zM41.2 10.472a9.129 9.129 0 0 1 3.267-2.024 11.1 11.1 0 0 1 3.808-.675c1.337 0 2.469.167 3.393.499.924.331 1.673.846 2.246 1.54.574.697.994 1.575 1.26 2.636.265 1.06.398 2.318.398 3.774v8.063h-4.78V22.58h-.096c-.404.664-1.015 1.179-1.832 1.542a6.466 6.466 0 0 1-2.66.547 8.055 8.055 0 0 1-1.976-.257 5.765 5.765 0 0 1-1.864-.835 4.52 4.52 0 0 1-1.387-1.543c-.361-.641-.541-1.434-.541-2.376 0-1.157.312-2.089.94-2.795.626-.707 1.433-1.253 2.421-1.638.988-.385 2.087-.642 3.299-.771a33.592 33.592 0 0 1 3.536-.193v-.257c0-.791-.276-1.376-.828-1.75-.552-.374-1.232-.563-2.039-.563a5.05 5.05 0 0 0-2.152.482 6.859 6.859 0 0 0-1.768 1.157L41.2 10.47zm16.928 13.812V2.11A2.1 2.1 0 0 1 60.22 0h3.228v24.284h-5.32zM25.759 3.143c0 1.617-1.3 2.928-2.906 2.928-1.605 0-2.905-1.31-2.905-2.928 0-1.618 1.3-2.93 2.905-2.93 1.605 0 2.906 1.312 2.906 2.93" fill="#FFF" fill-rule="evenodd"/></svg>